<?xml version="1.0" encoding="UTF-8"?>
<svg id="Layer_2" data-name="Layer 2" xmlns="http://www.w3.org/2000/svg" viewBox="0 0 101.07 101.07">
  <defs>
    <style>
      .cls-1 {
        fill: #fcf5e6;
        opacity: .16;
      }

      .cls-1, .cls-2, .cls-3, .cls-4, .cls-5, .cls-6, .cls-7, .cls-8, .cls-9 {
        stroke-width: 0px;
      }

      .cls-10 {
        fill: #fbb885;
        stroke: #8f6c56;
        stroke-miterlimit: 10;
        stroke-width: 1.07px;
      }

      .cls-2 {
        fill: #22282d;
      }

      .cls-3 {
        fill: #eef1f8;
      }

      .cls-4 {
        fill: #d9dadd;
      }

      .cls-5 {
        fill: #1e1c1d;
      }

      .cls-6 {
        fill: #c18f6a;
      }

      .cls-7 {
        fill: #fefefe;
        opacity: .26;
      }

      .cls-8 {
        fill: #fcfcfc;
        opacity: .44;
      }

      .cls-9 {
        fill: #272d35;
      }
    </style>
  </defs>
  <g id="Layer_6" data-name="Layer 6">
    <g>
      <g>
        <path class="cls-10" d="M77.6,92.57c-5.67,3.65-11.89,6.09-18.49,7.23-6.37,1.11-12.81.97-19.16-.4-6.34-1.37-12.27-3.92-17.61-7.56-5.53-3.77-10.19-8.56-13.84-14.23-3.65-5.67-6.09-11.89-7.23-18.49-1.11-6.37-.97-12.81.4-19.16,1.37-6.34,3.92-12.27,7.56-17.61,3.77-5.53,8.56-10.19,14.23-13.84,5.67-3.65,11.89-6.09,18.49-7.23,6.37-1.11,12.81-.97,19.16.4,6.34,1.37,12.27,3.92,17.61,7.56,5.53,3.77,10.19,8.56,13.84,14.23s6.09,11.89,7.23,18.49c1.11,6.37.97,12.81-.4,19.16-1.37,6.34-3.92,12.27-7.56,17.61-3.77,5.53-8.56,10.19-14.23,13.84Z"/>
        <circle class="cls-6" cx="17.13" cy="51.61" r="11.07"/>
        <circle class="cls-6" cx="73.37" cy="77.32" r="9.16"/>
        <circle class="cls-6" cx="30.03" cy="23.65" r="6.72"/>
        <circle class="cls-6" cx="47.23" cy="12.09" r="4.98"/>
        <circle class="cls-6" cx="29.73" cy="78.86" r="8.19"/>
        <circle class="cls-6" cx="88.75" cy="33.72" r="5.58"/>
        <circle class="cls-6" cx="90.37" cy="61.84" r="5.42"/>
        <circle class="cls-6" cx="59.68" cy="61.84" r="3.83"/>
        <circle class="cls-6" cx="51.68" cy="92.69" r="3.83"/>
      </g>
      <circle class="cls-1" cx="50.76" cy="49.79" r="49.04"/>
      <g>
        <g>
          <path class="cls-5" d="M86.11,31.8c-5.42-8.73-16.89-11.41-25.61-5.98-8.72,5.43-11.4,16.9-5.98,25.63,5.42,8.73,16.89,11.41,25.61,5.98,8.72-5.43,11.4-16.9,5.98-25.63ZM78.28,54.44c-7.08,4.4-16.38,2.23-20.78-4.85-4.4-7.08-2.22-16.39,4.85-20.79,7.08-4.4,16.38-2.23,20.78,4.85,4.4,7.08,2.22,16.39-4.85,20.79Z"/>
          <rect class="cls-5" x="48" y="48.68" width="5.06" height="11.7" transform="translate(30.86 126.23) rotate(-121.84)"/>
          <path class="cls-5" d="M12.44,78.22h0c1.48,2.39,4.62,3.12,7.01,1.64l28.33-18.66-4.44-7.15-29.27,17.16c-2.39,1.49-3.12,4.63-1.64,7.02Z"/>
          <path class="cls-9" d="M20.77,73.04h0c1.11,1.79,3.46,2.34,5.25,1.23l21.21-13.97-3.32-5.35-21.91,12.84c-1.79,1.11-2.34,3.46-1.23,5.25Z"/>
          <circle class="cls-8" cx="70.24" cy="41.62" r="14.98"/>
          <circle class="cls-7" cx="67.66" cy="37.95" r="9.26" transform="translate(14.87 94.79) rotate(-76.4)"/>
        </g>
        <g>
          <path class="cls-5" d="M89.14,23.56c-4.09,6.89-12.03,11.29-20.97,15.07-10.58,4.48-17.41,5.91-24.58,5.38-4.05-.3-4.85-.98-5.11-1.61-1.42-3.45,10.46-12.58,22.3-17.57,12.02-5.07,27.47-7.24,28.94-3.75.34.81-.15,1.75-.58,2.47Z"/>
          <path class="cls-9" d="M88.09,23.92c-3.92,6.6-11.52,10.81-20.08,14.43-10.13,4.29-16.67,5.66-23.53,5.15-3.88-.29-4.65-.94-4.89-1.54-1.36-3.3,10.01-12.05,21.35-16.83,11.51-4.85,26.31-6.93,27.72-3.59.33.78-.15,1.68-.56,2.37Z"/>
          <path class="cls-9" d="M80.34,24.83l-12.96-13.69c-1.35-1.42-3.51-1.7-5.17-.67l-17.58,10.9c-1.63,1.01-2.35,3.01-1.73,4.83l4.08,12.04s13.72,3.17,33.37-13.42Z"/>
          <path class="cls-3" d="M75.79,20.03c-15.25,12.42-26.74,12.94-30.71,12.65l1.89,5.57s13.72,3.17,33.37-13.42l-4.55-4.8Z"/>
          <path class="cls-2" d="M62.86,13.3c.36.61-1.07,2.33-2.41,3.33-1.51,1.13-2.12.77-4.26,1.94-2.14,1.18-2.05,1.83-3.98,2.77-1.66.81-4.17,1.52-4.53.92-.49-.82,2.99-4.08,6.57-6.2,4.19-2.47,8.04-3.71,8.6-2.76Z"/>
          <path class="cls-4" d="M59.55,29.93s4.26,3.84,14.73-.44c0,0-14.74,10.86-27.3,8.76l-1.89-5.57s10.07-.75,14.46-2.75Z"/>
        </g>
      </g>
    </g>
  </g>
</svg>