<?xml version="1.0" encoding="UTF-8"?>
<svg id="Layer_2" data-name="Layer 2" xmlns="http://www.w3.org/2000/svg" viewBox="0 0 734.45 734.45">
  <defs>
    <style>
      .cls-1 {
        fill: none;
      }

      .cls-1, .cls-2, .cls-3, .cls-4, .cls-5, .cls-6 {
        stroke-width: 0px;
      }

      .cls-2 {
        fill: #806858;
      }

      .cls-3 {
        fill: #666;
      }

      .cls-4 {
        fill: #ffd1b0;
      }

      .cls-5 {
        fill: #4cc9f0;
      }

      .cls-6 {
        fill: #fff;
      }
    </style>
  </defs>
  <g id="Layer_6" data-name="Layer 6">
    <g>
      <rect class="cls-1" width="734.45" height="734.45"/>
      <g>
        <polygon class="cls-3" points="593.73 509.84 610.34 532.08 629.51 525.94 712.41 608.85 712.41 641.55 694.62 652.53 650.97 637.63 581.89 568.55 587.94 556.81 567.54 533.54 593.73 509.84"/>
        <circle class="cls-5" cx="490.79" cy="430.24" r="126.57"/>
        <circle class="cls-2" cx="165.2" cy="231.2" r="72.47"/>
        <circle class="cls-2" cx="324.66" cy="167.38" r="72.47"/>
        <circle class="cls-2" cx="259.64" cy="344.52" r="72.47"/>
        <circle class="cls-2" cx="106.55" cy="385.37" r="72.47"/>
        <circle class="cls-2" cx="194.49" cy="480.55" r="40"/>
        <circle class="cls-2" cx="284.46" cy="550.31" r="24.37"/>
        <path class="cls-2" d="M495.09,270.94c.21,0,.42,0,.63,0,.3-2.21.47-4.46.47-6.76,0-27.35-22.17-49.53-49.53-49.53s-49.53,22.17-49.53,49.53c0,12.02,4.28,23.04,11.41,31.61,25.08-15.75,54.75-24.87,86.55-24.87Z"/>
        <g>
          <path class="cls-6" d="M725.26,624.52c-.27-10.46-4.49-20.29-11.89-27.69l-75.64-75.64c-5.92-5.92-15.23-6.42-21.73-1.51l-12.31-12.31c14.93-21.89,23.68-48.33,23.68-76.77,0-75.31-61.27-136.58-136.58-136.58s-136.58,61.27-136.58,136.58,61.27,136.58,136.58,136.58c28.44,0,54.88-8.74,76.77-23.68l12.31,12.31c-4.91,6.5-4.4,15.81,1.52,21.73l76,76c7.53,7.53,17.53,11.67,28.17,11.67s21.35-4.43,28.96-12.48c7.2-7.61,11.02-17.63,10.75-28.21ZM371.24,430.6c0-65.92,53.63-119.55,119.55-119.55s119.55,53.63,119.55,119.55-53.63,119.55-119.55,119.55-119.55-53.63-119.55-119.55ZM593.15,520.92l10.69,10.69-12.05,12.05-10.69-10.69c4.26-3.76,8.28-7.79,12.05-12.05ZM702.14,641.03c-4.37,4.61-10.26,7.16-16.59,7.16s-11.82-2.37-16.13-6.69l-75.69-75.69,32.26-32.26,75.33,75.33c8.85,8.85,9.22,23.28.82,32.16Z"/>
          <path class="cls-4" d="M538.11,237.36c-13.87-32.78-33.71-62.22-58.99-87.5-25.28-25.28-54.71-45.12-87.5-58.99-33.95-14.36-70.01-21.64-107.16-21.64s-73.21,7.28-107.16,21.64c-32.78,13.87-62.22,33.71-87.5,58.99-25.28,25.28-45.12,54.71-58.99,87.5-14.36,33.95-21.64,70.01-21.64,107.16s7.28,73.21,21.64,107.16c13.87,32.78,33.71,62.22,58.99,87.5,25.28,25.28,54.71,45.12,87.5,58.99,33.95,14.36,70.01,21.64,107.16,21.64s73.21-7.28,107.16-21.64c12.03-5.09,23.6-10.99,34.69-17.66-55.63-25.9-94.2-82.29-94.2-147.7,0-59.26,31.66-111.12,78.98-139.61-3.27-5.97-5.13-12.82-5.13-20.1,0-23.16,18.78-41.94,41.94-41.94s40.26,17.16,41.82,38.89c1.74-.06,3.49-.09,5.24-.09,20.16,0,39.46,3.67,57.28,10.37-3.5-14.63-8.21-28.98-14.13-42.97ZM92.46,436.55c-20.45,0-37.03-16.58-37.03-37.03s16.58-37.03,37.03-37.03,37.03,16.58,37.03,37.03-16.58,37.03-37.03,37.03ZM194.49,509.84c-16.17,0-29.29-13.11-29.29-29.29s13.11-29.29,29.29-29.29,29.29,13.11,29.29,29.29-13.11,29.29-29.29,29.29ZM163.77,289.32c-33.67,0-60.97-27.3-60.97-60.97s27.3-60.97,60.97-60.97,60.97,27.3,60.97,60.97-27.3,60.97-60.97,60.97ZM284.46,568.55c-10.07,0-18.23-8.16-18.23-18.23s8.16-18.23,18.23-18.23,18.23,8.16,18.23,18.23-8.16,18.23-18.23,18.23ZM282.76,385.37c-18.09,0-32.76-14.67-32.76-32.76s14.67-32.76,32.76-32.76,32.76,14.67,32.76,32.76-14.67,32.76-32.76,32.76ZM332.11,174.97c-15.14,0-27.41-12.27-27.41-27.41s12.27-27.41,27.41-27.41,27.41,12.27,27.41,27.41-12.27,27.41-27.41,27.41Z"/>
        </g>
      </g>
    </g>
  </g>
</svg>